<svg xmlns="http://www.w3.org/2000/svg" width="1600" height="700" viewBox="0 0 1600 700">
<defs><linearGradient id="g" x1="0" y1="0" x2="1" y2="1"><stop offset="0" stop-color="#0f172a"/><stop offset=".55" stop-color="#0b3a66"/><stop offset="1" stop-color="#0f172a"/></linearGradient><radialGradient id="r" cx="75%" cy="35%" r="60%"><stop offset="0" stop-color="#0ea5e9" stop-opacity=".45"/><stop offset="1" stop-color="#0ea5e9" stop-opacity="0"/></radialGradient></defs><rect width="1600" height="700" fill="url(#g)"/><rect width="1600" height="700" fill="url(#r)"/><g opacity=".22" stroke="#38bdf8" stroke-width="2" fill="none"><path d="M80 520H350l80-80h210l60-60h150"/><path d="M940 180h150l65 65h240"/><path d="M1030 500h170l50-50h220"/><circle cx="350" cy="520" r="7" fill="#38bdf8"/><circle cx="640" cy="440" r="7" fill="#38bdf8"/><circle cx="1395" cy="245" r="7" fill="#38bdf8"/></g><g opacity=".14" fill="#ffffff"><text x="105" y="175" font-family="Arial" font-size="90" font-weight="700">EHR</text><text x="105" y="270" font-family="Arial" font-size="42">HL7 • FHIR • Interoperability</text></g><g transform="translate(1120 220)" opacity=".22" stroke="#fff" stroke-width="8" fill="none"><rect x="0" y="0" width="260" height="170" rx="24"/><path d="M130 45v80M90 85h80"/><path d="M40 210h180"/></g></svg>
